# xmcd
#
# Track frame offsets: 
#        150
#        32648
#        59810
#        86025
#        123588
#        153843
#        193102
#        226173
#        260476
#        293230
#
# Disc length: 4780 seconds
#
# Revision: 0
# Processed by: cddbd v1.5.2PL0 Copyright (c) Steve Scherf et al.
# Submitted via: ExactAudioCopy v1.3
#
DISCID=8d12aa0a
DTITLE=Various Artist - Blues - Golden Age '60s -'70s  vol.03  CD2
DYEAR=2017
DGENRE=Rock
TTITLE0=Bad Company (1977) - Master Of Ceremony
TTITLE1=Juicy Luicy (1970) - Built For Comfort
TTITLE2=Ac- Dc (1976) - Ride On
TTITLE3=Free (1968) - Goin' Down Slow
TTITLE4=Nazareth (1974) - Jet Lag
TTITLE5=Warhorse (1971) - Mouthpiece
TTITLE6=ZZ Top (1972) - Sure Got Cold After The Rain Fell
TTITLE7=Ufo (1977) - Love to Love
TTITLE8=The Doors (1971) - Riders on the Storm
TTITLE9=Jimi Hendrix (1968) - Voodoo Chile
EXTD=
EXTT0=
EXTT1=
EXTT2=
EXTT3=
EXTT4=
EXTT5=
EXTT6=
EXTT7=
EXTT8=
EXTT9=
PLAYORDER=
